<svg width="14" height="12" viewBox="0 0 14 12" fill="none" xmlns="http://www.w3.org/2000/svg">
<path d="M7 0.75C10.2345 0.75 12.9787 2.94343 14 6.00001C12.9787 9.0566 10.2345 11.25 7 11.25C3.76549 11.25 1.02128 9.05657 -2.15558e-06 6.00001C1.02128 2.94343 3.76549 0.75 7 0.75V0.75ZM7 9.50001C8.93301 9.50001 10.5 7.933 10.5 6.00001C10.5 4.067 8.93301 2.50001 7 2.50001C5.06699 2.50001 3.5 4.067 3.5 6.00001C3.5 7.93297 5.06699 9.50001 7 9.50001Z" fill="#B7C1C5"/>
<path d="M5.76257 4.76256C5.07916 5.44597 5.07916 6.55401 5.76257 7.23743C6.44599 7.92084 7.55403 7.92084 8.23744 7.23743C8.92085 6.55401 8.92085 5.44597 8.23744 4.76256C7.55403 4.07915 6.44599 4.07915 5.76257 4.76256" fill="#B7C1C5"/>
</svg>
